<svg width="396" height="100" viewBox="0 0 396 100" fill="none" xmlns="http://www.w3.org/2000/svg">
<path d="M75.0376 56.6794C61.1955 66.3993 42.8601 67.4689 38.2897 57.5343C34.3391 47.192 38.3448 35.216 48.2263 29.4695C52.9913 26.6984 58.3396 25.8313 63.3896 26.6348C57.3108 30.4645 50.9432 36.1494 44.8335 43.995C59.0338 33.6379 78.243 32.5137 82.0723 43.6323C84.5731 53.3541 80.4568 63.939 71.3513 69.2342C67.2639 71.6113 62.7472 72.5873 58.3579 72.3097C63.8405 68.6402 69.5242 63.5019 75.0376 56.6794Z" fill="#141527"/>
<path d="M75.0389 56.6784C33.3554 88.4386 27.5091 54.5153 36.2555 45.6855C3.82027 78.4297 42.4136 97.0524 75.0389 56.6784Z" fill="#585AA7"/>
<path d="M44.8335 43.9952C85.9384 11.4896 92.3946 45.3022 83.8086 54.288C115.649 20.965 76.7266 3.04024 44.8335 43.9952Z" fill="#585AA7"/>
<path d="M116.85 59.8125V51.125H127.537C129.954 51.125 131.839 50.5104 133.193 49.2812C134.568 48.0521 135.256 46.2708 135.256 43.9375V43.875C135.256 41.5208 134.568 39.7396 133.193 38.5312C131.839 37.3229 129.954 36.7188 127.537 36.7188H116.85V27.9062H130.287C133.641 27.9062 136.558 28.5729 139.037 29.9062C141.516 31.2188 143.433 33.0729 144.787 35.4688C146.162 37.8438 146.85 40.6458 146.85 43.875V43.9375C146.85 47.1458 146.162 49.9479 144.787 52.3438C143.433 54.7188 141.516 56.5625 139.037 57.875C136.558 59.1667 133.641 59.8125 130.287 59.8125H116.85ZM111.068 73V27.9062H122.537V73H111.068ZM171.35 73.8125C167.454 73.8125 164.047 73.1146 161.131 71.7188C158.214 70.3229 155.954 68.3646 154.35 65.8438C152.745 63.3229 151.943 60.375 151.943 57V27.9062H163.412V55.9062C163.412 58.5312 164.1 60.5938 165.475 62.0938C166.85 63.5729 168.818 64.3125 171.381 64.3125C173.943 64.3125 175.902 63.5729 177.256 62.0938C178.631 60.5938 179.318 58.5312 179.318 55.9062V27.9062H190.787V57C190.787 60.3542 189.985 63.3021 188.381 65.8438C186.797 68.3646 184.547 70.3229 181.631 71.7188C178.735 73.1146 175.308 73.8125 171.35 73.8125ZM197.631 73V27.9062H209.1V63.7812H227.756V73H197.631ZM250.412 73.8125C246.662 73.8125 243.402 73.2812 240.631 72.2188C237.881 71.1354 235.725 69.5833 234.162 67.5625C232.62 65.5417 231.756 63.0938 231.568 60.2188L231.537 59.6562H242.193L242.256 59.9688C242.464 60.9479 242.943 61.8021 243.693 62.5312C244.464 63.2396 245.443 63.8021 246.631 64.2188C247.818 64.6146 249.141 64.8125 250.6 64.8125C252.12 64.8125 253.422 64.6146 254.506 64.2188C255.61 63.8021 256.464 63.2396 257.068 62.5312C257.672 61.8229 257.975 61 257.975 60.0625V60.0312C257.975 58.7604 257.422 57.7812 256.318 57.0938C255.214 56.3854 253.339 55.7812 250.693 55.2812L246.068 54.375C241.61 53.5417 238.214 52.0417 235.881 49.875C233.568 47.6875 232.412 44.8646 232.412 41.4062V41.375C232.412 38.4792 233.183 35.9688 234.725 33.8438C236.266 31.6979 238.381 30.0417 241.068 28.875C243.777 27.6875 246.85 27.0938 250.287 27.0938C254.058 27.0938 257.266 27.6562 259.912 28.7812C262.558 29.8854 264.6 31.4479 266.037 33.4688C267.495 35.4896 268.287 37.8646 268.412 40.5938L268.443 41.25H257.787L257.756 40.9062C257.631 39.9062 257.245 39.0521 256.6 38.3438C255.954 37.6354 255.1 37.0833 254.037 36.6875C252.975 36.2917 251.756 36.0938 250.381 36.0938C248.985 36.0938 247.797 36.2917 246.818 36.6875C245.839 37.0833 245.089 37.625 244.568 38.3125C244.068 38.9792 243.818 39.7396 243.818 40.5938V40.625C243.818 41.8333 244.37 42.7917 245.475 43.5C246.579 44.2083 248.339 44.7917 250.756 45.25L255.381 46.125C260.172 47.0417 263.704 48.5208 265.975 50.5625C268.245 52.6042 269.381 55.4375 269.381 59.0625V59.0938C269.381 62.0938 268.631 64.6979 267.131 66.9062C265.631 69.1146 263.464 70.8229 260.631 72.0312C257.797 73.2188 254.391 73.8125 250.412 73.8125ZM270.756 73L285.943 27.9062H296.506V37.7188H292.85L282.818 73H270.756ZM279.631 63.125L282.193 54.8438H303.756L306.318 63.125H279.631ZM303.131 73L293.068 37.7188V27.9062H300.006L315.193 73H303.131ZM319.506 73V27.9062H339.037C342.683 27.9062 345.777 28.4896 348.318 29.6562C350.86 30.8229 352.797 32.5208 354.131 34.75C355.464 36.9792 356.131 39.6875 356.131 42.875V42.9375C356.131 45.8333 355.433 48.4375 354.037 50.75C352.641 53.0625 350.777 54.7396 348.443 55.7812L357.443 73H344.537L336.818 57.4688C336.756 57.4688 336.672 57.4688 336.568 57.4688C336.485 57.4688 336.391 57.4688 336.287 57.4688H330.975V73H319.506ZM330.975 49.1562H337.756C339.797 49.1562 341.412 48.5938 342.6 47.4688C343.808 46.3229 344.412 44.8021 344.412 42.9062V42.8438C344.412 40.9479 343.797 39.4271 342.568 38.2812C341.339 37.1354 339.714 36.5625 337.693 36.5625H330.975V49.1562Z" fill="#141527"/>
</svg>
